<svg width="24" height="24" viewBox="0 0 24 24" fill="none" xmlns="http://www.w3.org/2000/svg">
<g clip-path="url(#clip0_180_2404)">
<path d="M12 0.599609C11.6311 0.599609 11.332 0.898681 11.332 1.26758V2.69258C11.332 3.06148 11.6311 3.36055 12 3.36055C12.3689 3.36055 12.668 3.06148 12.668 2.69258V1.26758C12.668 0.898681 12.3689 0.599609 12 0.599609Z" fill="black"/>
<path d="M12 20.6387C11.6311 20.6387 11.332 20.9377 11.332 21.3066V22.7316C11.332 23.1005 11.6311 23.3996 12 23.3996C12.3689 23.3996 12.668 23.1005 12.668 22.7316V21.3066C12.668 20.9377 12.3689 20.6387 12 20.6387Z" fill="black"/>
<path d="M5.92187 4.97671L4.91422 3.96905C4.65335 3.70823 4.23039 3.70823 3.96957 3.96905C3.70871 4.22992 3.70871 4.65287 3.96957 4.91369L4.97723 5.92135C5.10761 6.05178 5.27857 6.11702 5.44953 6.11702C5.62048 6.11702 5.79144 6.05178 5.92187 5.92135C6.18273 5.66048 6.18273 5.23753 5.92187 4.97671Z" fill="black"/>
<path d="M20.0298 19.0841L19.0221 18.0765C18.7613 17.8157 18.3383 17.8157 18.0775 18.0765C17.8166 18.3373 17.8166 18.7603 18.0775 19.0211L19.0851 20.0288C19.2155 20.1592 19.3865 20.2244 19.5574 20.2244C19.7284 20.2244 19.8993 20.1592 20.0298 20.0288C20.2906 19.7679 20.2906 19.3449 20.0298 19.0841Z" fill="black"/>
<path d="M2.69307 11.332H1.26807C0.89917 11.332 0.600098 11.6311 0.600098 12C0.600098 12.3689 0.89917 12.668 1.26807 12.668H2.69307C3.06196 12.668 3.36104 12.3689 3.36104 12C3.36104 11.6311 3.06196 11.332 2.69307 11.332Z" fill="black"/>
<path d="M22.7321 11.332H21.3071C20.9382 11.332 20.6392 11.6311 20.6392 12C20.6392 12.3689 20.9382 12.668 21.3071 12.668H22.7321C23.101 12.668 23.4001 12.3689 23.4001 12C23.4001 11.6311 23.101 11.332 22.7321 11.332Z" fill="black"/>
<path d="M5.92187 18.0765C5.661 17.8157 5.23805 17.8157 4.97723 18.0765L3.96957 19.0841C3.70871 19.345 3.70871 19.7679 3.96957 20.0288C4.09996 20.1592 4.27092 20.2244 4.44187 20.2244C4.61283 20.2244 4.78378 20.1592 4.91417 20.0288L5.92187 19.0211C6.18273 18.7603 6.18273 18.3373 5.92187 18.0765Z" fill="black"/>
<path d="M20.0298 3.97003C19.7689 3.70921 19.346 3.70921 19.0851 3.97003L18.0775 4.97764C17.8166 5.2385 17.8166 5.66146 18.0775 5.92228C18.2079 6.05271 18.3788 6.11795 18.5498 6.11795C18.7207 6.11795 18.8917 6.05271 19.0221 5.92232L20.0298 4.91467C20.2906 4.65381 20.2906 4.23085 20.0298 3.97003Z" fill="black"/>
<path d="M11.9999 4.91895C8.09571 4.91895 4.91943 8.09523 4.91943 11.9994C4.91943 15.9036 8.09571 19.0799 11.9999 19.0799C15.9041 19.0799 19.0804 15.9036 19.0804 11.9994C19.0804 8.09523 15.9041 4.91895 11.9999 4.91895ZM12.6679 17.7049V6.29394C15.5218 6.62596 17.7444 9.05781 17.7444 11.9994C17.7444 14.941 15.5218 17.3729 12.6679 17.7049Z" fill="black"/>
</g>
<defs>
<clipPath id="clip0_180_2404">
<rect width="22.8" height="22.8" fill="white" transform="translate(0.600098 0.599609)"/>
</clipPath>
</defs>
</svg>
